<svg xmlns="http://www.w3.org/2000/svg" width="353" height="100" viewBox="0 0 353 100" role="img" aria-label="NOIR">
  <title>NOIR</title><g fill="#FFFFFF"><path transform="translate(0 0)" d="M0 100V0H18L66 67.6V0H84V100H66L18 32.4V100Z"/><path transform="translate(106 0)" d="M51 -1A51 51 0 1 1 51 101A51 51 0 1 1 51 -1ZM47.28 14.9A31.38 31.38 0 1 0 47.28 77.66A31.38 31.38 0 1 0 47.28 14.9Z"/><path transform="translate(230 0)" d="M0 0H18V100H0Z"/><path transform="translate(275 0)" d="M0 0H18V100H0ZM18 0H48A30 30 0 0 1 48 60H18ZM18 18V42H48A12 12 0 0 0 48 18ZM36 58H56.16L80 100H59.84Z"/></g>
</svg>
